HIERARCHY
ROOT Hips
{
	OFFSET 0.00000 0.00000 0.00000
	CHANNELS 6 Xposition Yposition Zposition Zrotation Yrotation Xrotation 
	JOINT LHipJoint
	{
		OFFSET 0 0 0
		CHANNELS 3 Zrotation Yrotation Xrotation
		JOINT LeftUpLeg
		{
			OFFSET 1.57338 -1.94743 0.52196
			CHANNELS 3 Zrotation Yrotation Xrotation
			JOINT LeftLeg
			{
				OFFSET 2.60333 -7.15259 0.00000
				CHANNELS 3 Zrotation Yrotation Xrotation
				JOINT LeftFoot
				{
					OFFSET 2.77855 -7.63400 0.00000
					CHANNELS 3 Zrotation Yrotation Xrotation
					JOINT LeftToeBase
					{
						OFFSET 0.19847 -0.54529 2.28466
						CHANNELS 3 Zrotation Yrotation Xrotation
						End Site
						{
							OFFSET 0.00000 -0.00000 1.17993
						}
					}
				}
			}
		}
	}
	JOINT RHipJoint
	{
		OFFSET 0 0 0
		CHANNELS 3 Zrotation Yrotation Xrotation
		JOINT RightUpLeg
		{
			OFFSET -1.61527 -1.94743 0.52196
			CHANNELS 3 Zrotation Yrotation Xrotation
			JOINT RightLeg
			{
				OFFSET -2.53829 -6.97390 0.00000
				CHANNELS 3 Zrotation Yrotation Xrotation
				JOINT RightFoot
				{
					OFFSET -2.80762 -7.71387 0.00000
					CHANNELS 3 Zrotation Yrotation Xrotation
					JOINT RightToeBase
					{
						OFFSET -0.30536 -0.83898 2.28801
						CHANNELS 3 Zrotation Yrotation Xrotation
						End Site
						{
							OFFSET -0.00000 -0.00000 1.21323
						}
					}
				}
			}
		}
	}
	JOINT LowerBack
	{
		OFFSET 0 0 0
		CHANNELS 3 Zrotation Yrotation Xrotation
		JOINT Spine
		{
			OFFSET -0.04381 1.99497 -0.19778
			CHANNELS 3 Zrotation Yrotation Xrotation
			JOINT Spine1
			{
				OFFSET -0.01959 2.01295 -0.04372
				CHANNELS 3 Zrotation Yrotation Xrotation
				JOINT Neck
				{
					OFFSET 0 0 0
					CHANNELS 3 Zrotation Yrotation Xrotation
					JOINT Neck1
					{
						OFFSET -0.05459 1.76913 0.09708
						CHANNELS 3 Zrotation Yrotation Xrotation
						JOINT Head
						{
							OFFSET 0.09461 1.77368 -0.11172
							CHANNELS 3 Zrotation Yrotation Xrotation
							End Site
							{
								OFFSET 0.03812 1.78157 -0.04834
							}
						}
					}
				}
				JOINT LeftShoulder
				{
					OFFSET 0 0 0
					CHANNELS 3 Zrotation Yrotation Xrotation
					JOINT LeftArm
					{
						OFFSET 3.50922 1.24034 -0.28866
						CHANNELS 3 Zrotation Yrotation Xrotation
						JOINT LeftForeArm
						{
							OFFSET 5.40188 -0.00000 0.00000
							CHANNELS 3 Zrotation Yrotation Xrotation
							JOINT LeftHand
							{
								OFFSET 3.68559 -0.00000 0.00000
								CHANNELS 3 Zrotation Yrotation Xrotation
								JOINT LeftFingerBase
								{
									OFFSET 0 0 0
									CHANNELS 3 Zrotation Yrotation Xrotation
									JOINT LeftHandIndex1
									{
										OFFSET 0.61753 -0.00000 0.00000
										CHANNELS 3 Zrotation Yrotation Xrotation
										End Site
										{
											OFFSET 0.49787 -0.00000 0.00000
										}
									}
								}
								JOINT LThumb
								{
									OFFSET 0 0 0
									CHANNELS 3 Zrotation Yrotation Xrotation
									End Site
									{
										OFFSET 0.50547 -0.00000 0.50547
									}
								}
							}
						}
					}
				}
				JOINT RightShoulder
				{
					OFFSET 0 0 0
					CHANNELS 3 Zrotation Yrotation Xrotation
					JOINT RightArm
					{
						OFFSET -2.95373 1.39649 -0.27346
						CHANNELS 3 Zrotation Yrotation Xrotation
						JOINT RightForeArm
						{
							OFFSET -6.10670 -0.00000 -0.00000
							CHANNELS 3 Zrotation Yrotation Xrotation
							JOINT RightHand
							{
								OFFSET -3.63052 -0.00000 0.00000
								CHANNELS 3 Zrotation Yrotation Xrotation
								JOINT RightFingerBase
								{
									OFFSET 0 0 0
									CHANNELS 3 Zrotation Yrotation Xrotation
									JOINT RightHandIndex1
									{
										OFFSET -0.58385 -0.00000 0.00000
										CHANNELS 3 Zrotation Yrotation Xrotation
										End Site
										{
											OFFSET -0.47071 -0.00000 0.00000
										}
									}
								}
								JOINT RThumb
								{
									OFFSET 0 0 0
									CHANNELS 3 Zrotation Yrotation Xrotation
									End Site
									{
										OFFSET -0.47790 -0.00000 0.47790
									}
								}
							}
						}
					}
				}
			}
		}
	}
}
MOTION
Frames: 14
Frame Time: .0083333
-7.5558 20.1619 3.9463 2.4865 -85.3942 -6.9610 0.0000 0.0000 0.0000 -21.3597 -9.9046 -1.6300 2.1066 9.0848 26.0609 -0.6409 17.6018 4.9352 0.5007 4.5362 12.5902 0.0000 0.0000 0.0000 23.6679 16.6244 7.5873 -2.1514 -9.1745 26.3428 1.2718 -20.5848 -0.5860 -0.0131 0.7379 -2.0280 -1.1091 1.3184 10.7754 -1.4693 1.4561 -3.3309 -1.2220 0.7107 -9.6209 -7.9906 -2.5638 -7.9314 6.9174 -3.1208 -21.4867 3.6213 -1.6600 -4.9411 0.0000 -0.0000 0.0000 70.4434 -32.5861 -75.3145 18.9067 -29.3026 -4.9851 -0.0000 -0.0000 3.1670 23.4588 20.0960 8.4806 -7.1250 0.0000 -0.0000 -5.0777 51.6541 -0.8339 0.0000 -0.0000 0.0000 -51.4239 18.6608 -58.0260 -20.8813 31.6896 -5.9875 0.0000 -0.0000 -13.0876 -29.2866 -5.9792 3.3437 7.1250 -0.0000 -0.0000 -2.1726 -36.8198 -0.4374
-7.5322 20.3193 3.9519 6.8736 -85.4145 -10.3177 0.0000 0.0000 0.0000 -21.3749 -10.0220 -2.7710 2.0554 8.9805 25.7344 -0.7566 19.7061 6.2104 0.8372 5.8367 16.3114 0.0000 0.0000 0.0000 22.7722 17.2122 6.2798 -2.1283 -9.1284 26.1978 1.5874 -22.9263 -0.4707 -0.0528 -1.4824 4.0771 -1.4425 1.3673 10.3015 -1.5799 1.4630 -3.6769 -1.1486 0.7284 -9.7291 -8.0745 -2.6216 -8.3699 7.1299 -3.1572 -21.6676 3.7019 -1.6861 -4.9187 -0.0000 0.0000 0.0000 72.5265 -31.7961 -77.0755 17.2912 -27.2401 -4.2198 -0.0000 -0.0000 3.8504 22.2477 19.3375 7.7140 -7.1250 0.0000 -0.0000 -6.0691 50.6461 -0.8471 -0.0000 0.0000 0.0000 -52.1190 17.9089 -57.5060 -20.4410 31.1700 -5.7579 0.0000 -0.0000 -13.9656 -27.4079 -5.8404 3.0203 7.1250 -0.0000 -0.0000 -0.5856 -36.5519 -0.1217
-7.4978 20.4682 3.9528 14.6597 -85.3159 -17.1351 0.0000 0.0000 0.0000 -21.6470 -9.8314 -3.8666 1.9893 8.8438 25.3078 -0.5968 20.5830 9.0800 0.8207 5.7802 16.1480 0.0000 0.0000 0.0000 21.4903 17.4010 4.6968 -2.1720 -9.2154 26.4715 1.8818 -24.7065 -0.8774 -0.3241 -3.6593 10.1200 -2.1729 1.4734 9.9891 -1.7751 1.4783 -3.9682 -0.9482 0.7713 -9.8826 -8.0637 -2.7168 -8.7712 7.2498 -3.2653 -21.9083 3.7397 -1.7500 -4.9201 -0.0000 -0.0000 0.0000 74.7353 -31.0264 -79.3655 15.7056 -25.1198 -3.5200 -0.0000 -0.0000 4.3508 21.4454 19.4602 7.4557 -7.1250 0.0000 -0.0000 -6.8943 50.6409 -0.9623 -0.0000 -0.0000 0.0000 -52.7482 17.1114 -57.0329 -19.9955 30.6369 -5.5290 0.0000 -0.0000 -14.7530 -26.3791 -5.4257 2.6849 7.1250 -0.0000 -0.0000 0.2645 -36.0316 0.0583
-7.4533 20.6058 3.9522 23.4510 -85.0482 -25.0269 0.0000 0.0000 0.0000 -22.1533 -10.0010 -4.6938 1.9090 8.6740 24.7807 -0.2925 21.0552 12.4096 0.6572 5.1851 14.4374 0.0000 0.0000 0.0000 20.0561 17.5401 3.0492 -2.2640 -9.3955 27.0406 2.0312 -25.6958 -0.6228 -0.7004 -5.3495 14.9081 -3.0661 1.5489 9.8204 -1.9826 1.4241 -4.2219 -0.6612 0.7921 -10.0860 -8.2982 -2.8310 -9.0004 7.5306 -3.3791 -22.3018 3.8784 -1.8095 -4.9876 0.0000 -0.0000 0.0000 76.8661 -30.3108 -82.3953 14.1968 -23.0153 -2.9046 -0.0000 -0.0000 5.5467 20.6835 20.9269 7.6799 -7.1250 0.0000 -0.0000 -8.1111 52.0331 -1.4122 0.0000 -0.0000 0.0000 -53.4366 16.5127 -57.0605 -19.4250 29.9433 -5.2413 0.0000 -0.0000 -14.9261 -25.8786 -4.1465 2.0089 7.1250 -0.0000 -0.0000 0.6298 -34.5859 0.1610
-7.4013 20.7308 3.9463 32.1547 -84.6888 -32.8835 0.0000 0.0000 0.0000 -22.7632 -10.6098 -5.2274 1.8197 8.4799 24.1816 -0.1066 22.1653 14.8117 0.6541 5.1731 14.4029 0.0000 0.0000 0.0000 18.5813 17.8729 1.4248 -2.3878 -9.6309 27.7896 2.0268 -26.1914 0.7968 -0.9528 -6.2162 17.4129 -4.0853 1.6357 9.7344 -2.2250 1.3594 -4.4249 -0.3418 0.8162 -10.2873 -8.5355 -2.9876 -9.3808 7.9680 -3.5112 -22.5335 4.0600 -1.8835 -4.9724 0.0000 -0.0000 0.0000 79.0307 -29.6124 -86.3212 12.8826 -21.1150 -2.4108 -0.0000 -0.0000 7.7894 19.1468 24.2369 8.1116 -7.1250 0.0000 -0.0000 -10.9640 55.1242 -2.7499 0.0000 -0.0000 0.0000 -54.0376 16.0366 -57.4555 -18.9697 29.3811 -5.0160 0.0000 -0.0000 -14.7332 -25.5143 -3.7150 1.7713 7.1250 -0.0000 -0.0000 0.9139 -34.0938 0.2446
-7.3485 20.8440 3.9344 41.6318 -84.3075 -41.6763 0.0000 0.0000 0.0000 -23.5149 -11.1543 -5.5197 1.7287 8.2765 23.5572 0.0475 23.3399 16.7927 0.6558 5.1796 14.4214 0.0000 0.0000 0.0000 17.0080 18.3186 -0.0317 -2.5254 -9.8840 28.6018 1.9535 -26.5662 2.6660 -1.0889 -6.6318 18.6290 -5.2590 1.7692 9.7545 -2.5092 1.3239 -4.5489 0.0103 0.8637 -10.4716 -8.6092 -3.1045 -9.9397 8.3095 -3.5947 -22.5411 4.1721 -1.9373 -4.8679 -0.0000 0.0000 0.0000 81.1419 -28.9847 -90.7420 11.7602 -19.4440 -2.0217 -0.0000 -0.0000 9.9028 18.1452 26.3284 8.2700 -7.1250 0.0000 -0.0000 -13.0324 57.0098 -3.8800 -0.0000 0.0000 0.0000 -54.6106 15.7222 -58.2513 -18.6321 28.9589 -4.8514 0.0000 -0.0000 -14.6531 -25.2298 -3.6250 1.7065 7.1250 -0.0000 -0.0000 1.1442 -33.9842 0.3092
-7.2987 20.9400 3.9194 52.0096 -83.7770 -51.5545 0.0000 0.0000 0.0000 -24.5332 -11.5231 -5.6352 1.6386 8.0688 22.9233 0.3749 23.5802 19.1480 0.5901 4.9181 13.6752 0.0000 0.0000 0.0000 15.3136 18.7592 -1.2473 -2.6683 -10.1377 29.4239 1.9379 -27.2008 4.1142 -1.2358 -7.0495 19.8622 -6.5994 1.9249 9.8442 -2.8490 1.2778 -4.6251 0.3937 0.9150 -10.6526 -8.4350 -3.0434 -10.2467 8.3102 -3.5187 -22.6556 4.1419 -1.9171 -4.8661 -0.0000 -0.0000 0.0000 83.0186 -28.5267 -95.1202 10.8617 -18.0759 -1.7328 -0.0000 -0.0000 11.6447 17.9571 26.8049 8.3149 -7.1250 0.0000 -0.0000 -13.4900 57.4409 -4.1608 -0.0000 -0.0000 0.0000 -55.1086 15.5928 -58.9881 -18.4201 28.6917 -4.7492 0.0000 -0.0000 -14.8307 -25.1964 -3.1872 1.4984 7.1250 -0.0000 -0.0000 1.1551 -33.4996 0.3257
-7.2536 21.0299 3.8961 60.7978 -83.2215 -60.0023 0.0000 0.0000 0.0000 -25.4428 -12.2154 -5.4544 1.5518 7.8623 22.2966 0.5430 23.8034 20.3445 0.6626 5.2060 14.4971 0.0000 0.0000 0.0000 13.9316 19.2184 -2.1873 -2.8092 -10.3796 30.2151 1.9932 -27.9674 4.9177 -1.3356 -7.3177 20.6600 -7.9796 2.0920 9.9485 -3.0827 1.2472 -4.6760 0.9071 0.9827 -10.8225 -8.3382 -2.9133 -10.3391 8.2013 -3.3703 -22.7631 4.0935 -1.8503 -4.9040 0.0000 -0.0000 0.0000 84.3708 -28.2819 -98.7094 10.3377 -17.2661 -1.5737 -0.0000 -0.0000 12.8703 17.9910 27.0699 8.4066 -7.1250 0.0000 -0.0000 -13.6030 57.7096 -4.2850 0.0000 -0.0000 0.0000 -55.5720 15.6150 -59.3465 -18.3957 28.6609 -4.7375 0.0000 -0.0000 -15.1316 -25.4566 -2.5212 1.1996 7.1250 -0.0000 -0.0000 0.9217 -32.7707 0.2761
-7.2178 21.1084 3.8680 67.8590 -82.7405 -66.8676 0.0000 0.0000 0.0000 -26.2104 -12.6929 -5.1421 1.4612 7.6398 21.6252 0.8026 23.2638 21.6345 0.5817 4.8836 13.5768 0.0000 0.0000 0.0000 12.9400 19.8479 -2.8684 -2.9520 -10.6169 30.9984 2.0269 -28.3578 5.2611 -1.3920 -7.4644 21.0987 -9.1610 2.2556 9.9704 -3.2486 1.2592 -4.6779 1.3767 1.0586 -10.8883 -8.5717 -2.9163 -10.6789 8.4062 -3.3065 -22.4378 4.1827 -1.8061 -4.7439 0.0000 -0.0000 0.0000 85.2934 -28.2616 -101.1678 10.1425 -16.9621 -1.5162 -0.0000 -0.0000 13.3200 18.6804 26.8152 8.6720 -7.1250 0.0000 -0.0000 -12.7324 57.6074 -3.9731 0.0000 -0.0000 0.0000 -56.0061 15.7745 -59.6181 -18.4273 28.7008 -4.7527 0.0000 -0.0000 -15.3296 -25.4422 -1.8573 0.8834 7.1250 -0.0000 -0.0000 0.9161 -32.0356 0.2907
-7.1912 21.1602 3.8411 73.5046 -82.2622 -72.4573 0.0000 0.0000 0.0000 -26.9884 -12.7169 -4.6830 1.3560 7.3711 20.8195 1.1954 22.0876 23.4000 0.4327 4.2211 11.6996 0.0000 0.0000 0.0000 12.1790 20.5370 -3.3716 -3.1051 -10.8633 31.8202 1.9648 -28.1284 5.4907 -1.4571 -7.6295 21.5943 -10.1284 2.3658 9.9137 -3.4232 1.2438 -4.6410 1.7263 1.1022 -10.8531 -8.7425 -2.9465 -11.0906 8.6356 -3.2694 -21.9123 4.2612 -1.7768 -4.5081 0.0000 -0.0000 0.0000 85.8884 -28.4213 -101.9857 10.1757 -17.0139 -1.5259 -0.0000 -0.0000 12.7178 19.9101 26.0513 9.0381 -7.1250 0.0000 -0.0000 -11.0295 57.1091 -3.2994 0.0000 -0.0000 0.0000 -56.2996 16.0265 -59.4451 -18.6272 28.9528 -4.8490 0.0000 -0.0000 -16.0619 -25.5027 -1.6290 0.7769 7.1250 -0.0000 -0.0000 0.8623 -31.7838 0.2788
-7.1702 21.1904 3.8121 78.8876 -81.5462 -78.0478 0.0000 0.0000 0.0000 -28.0305 -12.3396 -3.9352 1.2449 7.0746 19.9364 1.4638 21.4265 24.6750 0.4051 4.0860 11.3186 0.0000 0.0000 0.0000 11.3544 21.1452 -3.5684 -3.2555 -11.0976 32.6096 1.8811 -27.6001 5.4389 -1.5064 -7.7517 21.9625 -11.3052 2.4808 9.9644 -3.6201 1.1911 -4.5324 2.1708 1.1366 -10.8072 -8.9562 -2.9354 -11.2460 8.8289 -3.1976 -21.5440 4.3456 -1.7292 -4.3654 0.0000 0.0000 0.0000 86.0653 -28.6684 -101.0417 10.4217 -17.3965 -1.5987 -0.0000 -0.0000 11.0771 21.3617 24.6684 9.2713 -7.1250 0.0000 -0.0000 -8.8503 56.0115 -2.4041 0.0000 0.0000 0.0000 -56.5598 16.3179 -58.5948 -18.9304 29.3321 -4.9967 0.0000 -0.0000 -17.3466 -26.0251 -1.3197 0.6443 7.1250 -0.0000 -0.0000 0.4382 -31.4482 0.1452
-7.1504 21.2034 3.7868 83.8274 -80.4699 -83.3422 0.0000 0.0000 0.0000 -29.4068 -11.2282 -3.2658 1.1390 6.7776 19.0580 1.8064 20.2399 26.1822 0.2457 3.1894 8.8066 0.0000 0.0000 0.0000 10.2375 21.7056 -3.5818 -3.3911 -11.3027 33.3077 1.8516 -27.2350 5.1187 -1.5421 -7.8389 22.2258 -12.7124 2.6201 10.1231 -3.9043 1.1021 -4.4176 2.6462 1.1626 -10.8249 -9.4109 -2.9167 -11.2423 9.2170 -3.0797 -21.2071 4.5377 -1.6510 -4.2510 -0.0000 0.0000 0.0000 85.9502 -29.0131 -99.0745 10.7988 -17.9792 -1.7133 -0.0000 -0.0000 9.4210 22.3091 23.2266 9.1917 -7.1250 0.0000 -0.0000 -7.2759 54.7180 -1.7438 -0.0000 0.0000 0.0000 -56.8440 16.6502 -57.2064 -19.1549 29.6107 -5.1072 0.0000 -0.0000 -18.5270 -26.4267 -0.9836 0.4888 7.1250 -0.0000 -0.0000 0.1136 -31.0780 0.0387
-7.1300 21.2257 3.7789 87.3912 -79.6142 -87.0970 0.0000 0.0000 0.0000 -30.4316 -10.3355 -2.6787 1.0366 6.4756 18.1708 1.8295 20.5778 26.4207 0.2659 3.3171 9.1630 0.0000 0.0000 0.0000 9.3611 22.3928 -3.6178 -3.5028 -11.4677 33.8739 1.9482 -27.3368 4.2533 -1.7680 -8.3651 23.8286 -13.5117 2.6972 10.1463 -4.1936 1.0290 -4.4219 2.7771 1.1605 -10.8700 -9.7405 -2.8347 -11.0211 9.5255 -2.9076 -20.9060 4.6881 -1.5530 -4.1911 -0.0000 -0.0000 0.0000 85.7248 -29.5427 -96.7883 11.2138 -18.6152 -1.8436 -0.0000 -0.0000 8.4012 22.3091 22.8254 9.0440 -7.1250 0.0000 -0.0000 -7.1272 54.3016 -1.6354 -0.0000 -0.0000 0.0000 -57.0261 17.0501 -55.5729 -19.4810 30.0120 -5.2693 0.0000 -0.0000 -19.3562 -26.2423 -1.1663 0.5749 7.1250 -0.0000 -0.0000 0.2626 -31.2799 0.0881
-7.1106 21.2570 3.7783 90.4866 -78.7756 -90.1047 0.0000 0.0000 0.0000 -31.3135 -10.0912 -2.1860 0.9499 6.2069 17.3858 1.3718 23.1666 24.8742 0.7115 5.3906 15.0262 0.0000 0.0000 0.0000 8.3854 23.0522 -3.9225 -3.5895 -11.5931 34.3074 2.0313 -27.4996 3.6265 -1.9944 -8.8544 25.3410 -14.1524 2.7495 9.8289 -4.4916 0.9997 -4.4986 2.8098 1.1644 -10.7937 -9.8224 -2.7252 -10.6608 9.6091 -2.7584 -20.7461 4.7305 -1.4778 -4.2060 -0.0000 0.0000 0.0000 85.4679 -30.0970 -94.5699 11.6561 -19.2868 -1.9872 -0.0000 -0.0000 7.6642 21.8215 22.8900 8.8523 -7.1250 0.0000 -0.0000 -7.6543 54.2735 -1.7522 -0.0000 0.0000 0.0000 -57.1752 17.4484 -53.9471 -19.8709 30.4865 -5.4657 0.0000 -0.0000 -19.9439 -25.8857 -1.2866 0.6243 7.1250 -0.0000 -0.0000 0.5492 -31.4095 0.1825
